# xmcd CD database file
#
# Track frame offsets:
#	150
#	18291
#	31408
#	52177
#	71379
#	88158
#	114138
#	128783
#	147090
#
# Disc length: 2276 seconds
#
# Revision: 0
# Processed by: cddbd v1.5.1PL0 Copyright (c) Steve Scherf et al.
# Submitted via: CDex 1.51
#
DISCID=7308e209
DTITLE=Bobby Bland - Come Fly With Me
DYEAR=1978
DGENRE=Blues
TTITLE0=Come Fly With Me
TTITLE1=Lady Lonely
TTITLE2=Night Games
TTITLE3=To Be Friends
TTITLE4=I'm Just Your Man
TTITLE5=Love To See You Smile
TTITLE6=You Can Count On Me
TTITLE7=This Bitter Earth
TTITLE8=Ain't God Something
EXTD=YEAR: 1978
EXTT0=
EXTT1=
EXTT2=
EXTT3=
EXTT4=
EXTT5=
EXTT6=
EXTT7=
EXTT8=
PLAYORDER=
